<?xml version="1.0" standalone="yes"?>
<svg xmlns="http://www.w3.org/2000/svg" width="391" height="405">
<path style="fill:#ca9961; stroke:none;" d="M0 0L2 9L0 27L10 25L0 29C0 41.6705 -4.89157 66.7964 5 76L0 75C0 94.8356 -3.59505 118.7 1 138L3 139L7 139L8 136L9 136L3 164L0 163L0 170L2 169C2 185.348 -1.7293 202.083 2 217C3.14882 221.595 4.19958 234.05 0 233L0 259L1 259L1 255L2 255L4 258L4 254L7 253L8 253L12 271L9 267L8 267L7 270L0 265L0 324L8 335L0 330L0 344L4 343C2.35733 349.955 -3.91803 356.999 7 359L7 360L0 359L0 375L9 377L13 371C16.6925 372.231 28.5237 370.905 27 377L61 378L62 383L36 383L37 387L31 387L35 391L35 392L30 390L10 391C8.87025 383.916 -1.49336 384.47 0.662037 389.726C1.94972 392.866 8.62886 392.224 11.4244 393.549C15.828 395.638 20.6439 395.97 24.9954 398.178C33.2003 402.342 38.2428 408.996 48 401L49 401C58.6822 409.444 72.7119 391.284 82 403L89 402L88 405L95 405L88 394L96 399L111 397L111 396L95 386L115 386L115 385L93 374L98 369L96 373L106 374L106 373L104 373L104 372L110 373L110 372L106 369L110 370L110 369C95.3784 364.202 83.6267 353.354 72.8688 342.725C50.8942 321.015 33.2896 293.48 23.7454 264C19.0639 249.54 17.7761 234.595 14 220L13 220L13 223L12 223L12 219L11 219L11 222L10 222C5.20878 182.681 9.52715 145.548 26.3086 109C32.9125 94.6179 45.5229 82.4462 51 68L48 69L88 31.4784L117 13C110.605 11.1132 97.361 16.2687 99 6L106 8L101 4L99 6L96 5L96 7L76 15L74 17C73.6813 26.7325 59.8574 26.213 60.9213 19.0432C61.5214 14.9986 68.1162 14.8607 70.9452 13.49C74.7763 11.6339 83.78 3.62918 86 0L61 0L62 3L33 0L33 1L44 5L44 6L35 3L34 3L30 4L33 4L32 0L0 0z"/>
<path style="fill:#47363d; stroke:none;" d="M32 0L33 4L30 4C32.134 5.85626 33.3607 5.92245 34 3L35 3L44 6L44 5L32 0M55 0L55 1L62 3L55 0M76 15L96 7L96 5L101 4L106 8L99 6C95.332 16.4055 111.045 11.5987 117 13C92.0515 29.4534 65.4905 43.608 48 69L51 68C43.6849 81.1238 33.8829 92.3183 27.2585 106C10.2866 141.053 6.35538 177.696 8 216L9 216L9 194L11 195L13 184L14 184L14 179L15 179L15 192L14 192L14 189L13 189C11.4543 197.361 14.5897 205.541 14.9606 214C17.0856 262.457 37.4958 309.544 73 343L74 343C91.6921 330.149 117.002 324.313 138 319.346C145.639 317.539 153.112 314.168 161 314L160 311L167 311L167 310L161 310L156 306L156 305C203.662 305 251.277 303.997 299 304C310.079 304.001 321.963 304.119 333 305.17C338.241 305.668 346.857 307.891 351.671 304.972C357.417 301.488 360.462 290.792 363.258 285C373.788 263.194 380 237.255 380 213L381 213L381 215L382 215L382 211L383 211L384 223L385 223C393.47 187.523 384.998 146.21 371.547 113C367.758 103.645 361.448 95.476 358 86L359 86L365 94C356.05 70.3859 331.949 48.0083 312 33.5941C302.725 26.8926 291.697 22.3451 283 15L287 16L288 16L302 12L296 4L301 1L301 0L162 0C156.812 0 150.28 -1.05057 145.285 0.499207C133.553 4.13931 126.484 11.6601 115 2L125 1L125 0L110 0L110 5L109 5L109 0C96.9617 0 87.4788 -1.0921 77.25 6.08331C74.868 7.75427 74.3634 10.9006 71.9722 12.6667C68.8375 14.9819 59.4746 14.1694 60.1389 19.9167C61.3871 30.7147 76.2474 23.3122 76 15z"/>
<path style="fill:#ca9961; stroke:none;" d="M109 0L109 5L110 5L109 0M115 2C121.655 9.94699 138.273 8.8876 144 0L115 2M296 4L302 12C296.27 12 288.635 12.8248 288 16L287 16L283 15C290.253 23.6967 303.969 28.0493 313 35.1196C333.839 51.4334 352.045 70.73 365 94L359 86L358 86C360.44 96.6636 368.545 105.687 372.305 116C384.828 150.349 391.755 186.633 385 223L384 221L383 221L381 225L382 223L381 223C376.812 230.875 377.079 242.275 375.182 251C372.569 263.02 367.447 274.893 362.308 286C356.83 297.841 353.974 306 340 306L340 307L352 307C349.306 315.455 342.684 321.693 336.855 328.093C321.248 345.228 301.801 359.689 281 370L282 373L278 377L283 379L288 378C279.822 386.677 257.75 393.978 246 396L246 397C257.028 396.97 264.965 392.441 275 398L273 392L277 392L277 391L275 391L275 390L282 387L282 386L280 384L290 383L290 386L294 386L288 390L288 393L297 395L297 396L278 396L278 399L295 399L295 400L290 404L293 403C296.602 407.123 311.15 406.574 313 401L326 398L329 401L329 396L299 384C306.047 377.666 308.849 383.706 316.001 385.361C319.453 386.16 323.438 384.843 327 385C326.146 387.697 326.149 388.386 329 389C329.66 407.477 355.199 401.157 366 402L376 401L374 405L391 402L391 385L339 382L339 385L326 384L326 383L328 378L356 372.257L371 377.811L391 374L391 295C391 284.958 394.657 270.406 381 270C383.155 263.261 384.696 250.843 391 247C391 208.961 395.428 166.909 387 130C391.733 127.39 391 122.902 391 118L391 86L382 79L391 76L391 34L385 34L385 32L391 32L391 19L387 19C391.569 12.8701 391 7.39047 391 0L364 2.99536L321 4L322 7C313.007 7.76727 303.517 -4.13391 296 4z"/>
<path style="fill:#47363d; stroke:none;" d="M302 0L302 1L322 7L321 4L330 1L302 0M331 0L331 1C340.639 4.05566 350.984 3.00064 361 3C365.206 2.99973 369.518 3.82898 372 0L331 0M30 1L31 2L30 1z"/>
<path style="fill:#ca9961; stroke:none;" d="M111 1L111 3L113 1L111 1z"/>
<path style="fill:#47363d; stroke:none;" d="M299 3L299 5L301 5L301 3L299 3M71 4L72 5L71 4M73 4L75 6L75 4L73 4M67 5L68 6L67 5z"/>
<path style="fill:#ca9961; stroke:none;" d="M111 5L112 6L111 5z"/>
<path style="fill:#47363d; stroke:none;" d="M14 8L14 9C18.6516 10.6825 23.0811 11.7704 26 7L14 8z"/>
<path style="fill:#2d549f; stroke:none;" d="M33 112C42.9347 106.404 49.9429 88.3343 57.8843 79.5795C79.3009 55.9691 107.816 30.6261 139 21L138 17L150 16.9969L208 10C190.441 0.5961 161.236 8.48633 143.83 14.4691C97.6555 30.3409 44.486 59.332 33 112z"/>
<path style="fill:#47363d; stroke:none;" d="M0 8L0 10L2 10L0 8z"/>
<path style="fill:#2d549f; stroke:none;" d="M225 11L235 15L238 13L225 11z"/>
<path style="fill:#ca9961; stroke:none;" d="M117 11L117 12L120 12L117 11z"/>
<path style="fill:#47363d; stroke:none;" d="M27 17C31.5822 21.0024 34.9667 21.6317 41 22L51 12L38.6651 17.0957L27 17z"/>
<path style="fill:#2d549f; stroke:none;" d="M241 14L241 16L243 14L241 14M245 16L257 19L257 22L274 27L275 26L274 23L271 24L271 22L256 18C253.266 14.6189 248.907 14.8774 245 16z"/>
<path style="fill:#47363d; stroke:none;" d="M333 15L340 17L333 15M389 15L387 19L390 20L391 15L389 15M147 16L148 17L147 16M326 26L348 25C346.358 15.1396 329.556 19.2258 326 26M267 23L268 24L267 23M0 27L0 29C4.17169 28.983 7.75799 28.8807 10 25L0 27z"/>
<path style="fill:#2d549f; stroke:none;" d="M277 26L279 28L277 26z"/>
<path style="fill:#47363d; stroke:none;" d="M8 28L8 29L14 29L8 28z"/>
<path style="fill:#2d549f; stroke:none;" d="M280 29L284 31L284 30L280 29M285 30L286 31L285 30M288 31L287 33L289 33L288 31z"/>
<path style="fill:#47363d; stroke:none;" d="M385 32L385 34L391 34L391 32L385 32M377 33L377 34L381 34L377 33z"/>
<path style="fill:#2d549f; stroke:none;" d="M289 34L290 35L289 34z"/>
<path style="fill:#47363d; stroke:none;" d="M357 35L358 36L357 35z"/>
<path style="fill:#2d549f; stroke:none;" d="M296 36L297 37L296 36M298 41L299 41L301 39C298.687 37.8835 297.988 38.6095 298 41M303 39L301 42L303 39M314 49L315 50L314 49M113 71L91.3395 88.1736L73 109L71 115L70 127L67 128L68 130L66 132L72 135C72 132.146 73.6858 133.33 76 134L74 136L77 140L72 144L75 172L93 171L101 174C107.19 173.675 113.195 173.662 118 178L144 180L152 185L150 184L150 185L149 188C154.191 184.344 161.714 178.724 162 172L165 173C167.059 170.075 171.322 163.213 175.13 162.631C178.507 162.115 181.498 167.819 183.21 170C188.228 176.396 193.848 186.693 202 189L202 190L200 191L205 195L204 193L205 193L209 199L208 199L205 196L210 201C209.732 197.633 210.083 194.97 214 196C233.816 190.261 255.297 210.699 272 218L271 222L278 223L278 224L275 225L281 226L286.333 248.889L289 251L289 261L286 259L290 263L289 261L290 261L298 270L295 267L295 266L313 241L321 207L322 207L322 210L323 210L324 199L327 200L326.83 170L317 128L308 116L307 114L300 100C290.555 93.2325 282.058 77.0269 270 75C267.851 71.0081 264.643 68.1395 260 69L250 64C244.812 55.4211 227.118 52.9109 218 51.196C188.948 45.7319 158.671 52.4825 130.985 60.5594C124.138 62.5572 119.689 69.373 113 71z"/>
<path style="fill:#38bbdf; stroke:none;" d="M187 61L187 62L206 62L187 61M179 62L179 63L182 63L179 62z"/>
<path style="fill:#ca9961; stroke:none;" d="M182 62L183 63L182 62z"/>
<path style="fill:#ddebec; stroke:none;" d="M130 83L130 84L140 79C144.781 79.7098 150.34 78.1971 154 75C159.344 78.1705 171.773 76.1859 178.424 76.8495C194.772 78.4807 211.975 81.7409 228 85.2114C245.848 89.0767 258.054 103.706 274 111C275.051 117.1 282.651 121.385 286.49 126.039C295.704 137.211 304.234 149.447 311.485 162C321.252 178.907 316.376 198.774 316 217C322.947 202.549 321.465 180.395 319.271 165C310.125 100.845 248.782 55.9973 185 62.1698C164.568 64.147 147.174 72.4419 130 83z"/>
<path style="fill:#ca9961; stroke:none;" d="M211 62L212 63L211 62z"/>
<path style="fill:#38bbdf; stroke:none;" d="M212 62L212 63L215 63L212 62M175.667 63.3333L176.333 63.6667L175.667 63.3333z"/>
<path style="fill:#ca9961; stroke:none;" d="M217.667 63.3333L218.333 63.6667L217.667 63.3333z"/>
<path style="fill:#38bbdf; stroke:none;" d="M219.667 63.3333L220.333 63.6667L219.667 63.3333M170.667 64.3333L171.333 64.6667L170.667 64.3333z"/>
<path style="fill:#ca9961; stroke:none;" d="M223 64L223 65L226 65L223 64z"/>
<path style="fill:#38bbdf; stroke:none;" d="M166.667 65.3333L167.333 65.6667L166.667 65.3333z"/>
<path style="fill:#ca9961; stroke:none;" d="M227 65L227 66L230 66L227 65z"/>
<path style="fill:#38bbdf; stroke:none;" d="M163.667 66.3333L164.333 66.6667L163.667 66.3333z"/>
<path style="fill:#ca9961; stroke:none;" d="M231.667 66.3333L232.333 66.6667L231.667 66.3333M52 67L53 68L52 67z"/>
<path style="fill:#38bbdf; stroke:none;" d="M159.667 67.3333L160.333 67.6667L159.667 67.3333z"/>
<path style="fill:#ca9961; stroke:none;" d="M235 67L236 68L235 67z"/>
<path style="fill:#38bbdf; stroke:none;" d="M156.667 68.3333L157.333 68.6667L156.667 68.3333z"/>
<path style="fill:#ca9961; stroke:none;" d="M237.667 68.3333L238.333 68.6667L237.667 68.3333z"/>
<path style="fill:#38bbdf; stroke:none;" d="M154 69L155 70L154 69z"/>
<path style="fill:#ca9961; stroke:none;" d="M240.667 69.3333L241.333 69.6667L240.667 69.3333z"/>
<path style="fill:#47363d; stroke:none;" d="M0 70C0.26113 73.71 0.910377 76.2812 5 76L0 70M44 74L49 70L44 74z"/>
<path style="fill:#38bbdf; stroke:none;" d="M151.667 70.3333L152.333 70.6667L151.667 70.3333z"/>
<path style="fill:#ca9961; stroke:none;" d="M243 70L244 71L243 70z"/>
<path style="fill:#38bbdf; stroke:none;" d="M149.667 71.3333L150.333 71.6667L149.667 71.3333z"/>
<path style="fill:#ca9961; stroke:none;" d="M246 71L247 72L246 71z"/>
<path style="fill:#38bbdf; stroke:none;" d="M147 72L148 73L147 72z"/>
<path style="fill:#ca9961; stroke:none;" d="M248 72L249 73L248 72z"/>
<path style="fill:#38bbdf; stroke:none;" d="M145 73L146 74L145 73z"/>
<path style="fill:#ca9961; stroke:none;" d="M251 73L252 74L251 73z"/>
<path style="fill:#38bbdf; stroke:none;" d="M142.667 74.3333L143.333 74.6667L142.667 74.3333z"/>
<path style="fill:#ca9961; stroke:none;" d="M253 74L254 75L253 74z"/>
<path style="fill:#47363d; stroke:none;" d="M43 75L44 76L43 75z"/>
<path style="fill:#38bbdf; stroke:none;" d="M141 75L142 76L141 75M154 75L140 79L130 84L131 82L130 82C117.285 89.2447 98.8297 105.292 95 120L97 118L101 119L102 116C106.226 118.726 112.465 117.429 117.424 117.951C126.312 118.886 135.232 121.08 144 122.793C167.714 127.426 191.644 137.417 215 144.026C236.964 150.242 252.622 150.778 270 168.004C277.188 175.129 292.549 187.464 294 198C308.283 215.183 305.116 234.06 301 254L302 254C307.248 245.009 316.729 230.753 315 220C318.583 216.596 316.693 205.015 317.17 200C319.562 174.859 309.829 154.512 294.534 134.961C289.094 128.007 276.504 119.23 274 111C260.953 102.114 247.483 90.2961 232 85.9236C214.913 81.0982 194.987 78.4053 177.285 76.4529C170.135 75.6643 160.506 77.4684 154 75M255 75L256 76L255 75z"/>
<path style="fill:#47363d; stroke:none;" d="M271 75L272 76L271 75z"/>
<path style="fill:#ca9961; stroke:none;" d="M350.333 75.6667L350.667 76.3333L350.333 75.6667z"/>
<path style="fill:#38bbdf; stroke:none;" d="M139 76L140 77L139 76z"/>
<path style="fill:#ca9961; stroke:none;" d="M257 76L258 77L257 76M352 76L353 81L354 81L352 76z"/>
<path style="fill:#47363d; stroke:none;" d="M382 79L390 87L391 76L382 79z"/>
<path style="fill:#38bbdf; stroke:none;" d="M131 81L131 82L139 78L131 81M259 77L260 78L259 77z"/>
<path style="fill:#ca9961; stroke:none;" d="M260 78L261 79L260 78z"/>
<path style="fill:#47363d; stroke:none;" d="M40 79L41 80L40 79z"/>
<path style="fill:#ca9961; stroke:none;" d="M262 79L263 80L262 79M265 81L266 82L265 81z"/>
<path style="fill:#38bbdf; stroke:none;" d="M267 82L268 83L267 82z"/>
<path style="fill:#2d549f; stroke:none;" d="M343 82L344 85L345 85L343 82z"/>
<path style="fill:#ca9961; stroke:none;" d="M356 82L356 85L357 85L356 82M268 83L269 84L268 83M269.667 84.3333L270.333 84.6667L269.667 84.3333M271 85L272 86L271 85M272 86L273 87L272 86z"/>
<path style="fill:#2d549f; stroke:none;" d="M346 86L347 87L346 86z"/>
<path style="fill:#38bbdf; stroke:none;" d="M275 88L276 89L275 88z"/>
<path style="fill:#ca9961; stroke:none;" d="M276 89L277 90L276 89M277 90L278 91L277 90M278 91L279 92L278 91M279 92L280 93L279 92M280 93L281 94L280 93M281 94L282 95L281 94M282 95L283 96L282 95z"/>
<path style="fill:#47363d; stroke:none;" d="M365 95L366 98L367 98L365 95z"/>
<path style="fill:#ca9961; stroke:none;" d="M285 98L286 99L285 98M286 99L287 100L286 99z"/>
<path style="fill:#47363d; stroke:none;" d="M367 99L368 100L367 99z"/>
<path style="fill:#ca9961; stroke:none;" d="M289 102L290 103L289 102M290 103L291 104L290 103M291 104L292 105L291 104M292 105L293 106L292 105z"/>
<path style="fill:#47363d; stroke:none;" d="M300 105L301 106L300 105M370 105L371 106L370 105z"/>
<path style="fill:#ca9961; stroke:none;" d="M293 106L294 107L293 106z"/>
<path style="fill:#47363d; stroke:none;" d="M297 109L298 110L297 109z"/>
<path style="fill:#ca9961; stroke:none;" d="M296 110L297 111L296 110z"/>
<path style="fill:#38bbdf; stroke:none;" d="M297 111L298 112L297 111z"/>
<path style="fill:#2d549f; stroke:none;" d="M27 125L28 125C29.8247 122.524 32.5602 120.247 33.0556 117C33.402 114.729 31.5411 112.436 29.3333 114.361C27.179 116.239 27.5177 122.262 27 125z"/>
<path style="fill:#ca9961; stroke:none;" d="M298 113L299 114L298 113M299 114L300 115L299 114z"/>
<path style="fill:#2d549f; stroke:none;" d="M104 116L105 117L104 116z"/>
<path style="fill:#ca9961; stroke:none;" d="M301 117L302 118L301 117z"/>
<path style="fill:#2d549f; stroke:none;" d="M25 119L25 122L26 122L27 119L25 119z"/>
<path style="fill:#38bbdf; stroke:none;" d="M94 120L95 121L94 120z"/>
<path style="fill:#ca9961; stroke:none;" d="M303 120L304 121L303 120M304 122L305 123L304 122M305 124L306 125L305 124z"/>
<path style="fill:#ddebec; stroke:none;" d="M381 124L382 125L381 124M383 124L384 132C387.729 129.352 386.69 126.041 383 124z"/>
<path style="fill:#38bbdf; stroke:none;" d="M306 125L307 126L306 125z"/>
<path style="fill:#2d549f; stroke:none;" d="M27 129L29 126L27 129z"/>
<path style="fill:#ca9961; stroke:none;" d="M384.333 126.667L384.667 127.333L384.333 126.667M307 128L308 129L307 128z"/>
<path style="fill:#ddebec; stroke:none;" d="M390 128L387 130L390 156L391 156L390 128z"/>
<path style="fill:#ca9961; stroke:none;" d="M308 129L309 130L308 129z"/>
<path style="fill:#38bbdf; stroke:none;" d="M310 133L311 134L310 133z"/>
<path style="fill:#ddebec; stroke:none;" d="M385.333 133.667L385.667 134.333L385.333 133.667z"/>
<path style="fill:#2d549f; stroke:none;" d="M67 134L68 135L67 134z"/>
<path style="fill:#ca9961; stroke:none;" d="M390 134L390 139L391 139L390 134z"/>
<path style="fill:#ddebec; stroke:none;" d="M0 136C0 143.017 -3.09056 159.608 3 164L9 136L8 136L7 139L3 139L0 136z"/>
<path style="fill:#2d549f; stroke:none;" d="M24 136L25 137L24 136M64 139L69 139L69 136L64 139z"/>
<path style="fill:#ca9961; stroke:none;" d="M311 136L312 137L311 136z"/>
<path style="fill:#ddebec; stroke:none;" d="M386 136L387 137L386 136z"/>
<path style="fill:#47363d; stroke:none;" d="M77 137L78 138L77 137M314 137L315 138L314 137z"/>
<path style="fill:#38bbdf; stroke:none;" d="M312 138L313 139L312 138M313 141L314 142L313 141z"/>
<path style="fill:#2d549f; stroke:none;" d="M65 142L66 143L65 142M21.6667 144.333L22.3333 144.667L21.6667 144.333z"/>
<path style="fill:#47363d; stroke:none;" d="M74 144L74 146L76 144L74 144z"/>
<path style="fill:#38bbdf; stroke:none;" d="M314 144L315 145L314 144M315 146L316 147L315 146z"/>
<path style="fill:#2d549f; stroke:none;" d="M20.3333 147.667L20.6667 148.333L20.3333 147.667z"/>
<path style="fill:#38bbdf; stroke:none;" d="M316 150L317 151L316 150M317.333 153.667L317.667 154.333L317.333 153.667z"/>
<path style="fill:#2d549f; stroke:none;" d="M18.3333 156.667L18.6667 157.333L18.3333 156.667z"/>
<path style="fill:#38bbdf; stroke:none;" d="M318.333 158.667L318.667 159.333L318.333 158.667z"/>
<path style="fill:#2d549f; stroke:none;" d="M17 159L15 175L16 175L17 159z"/>
<path style="fill:#38bbdf; stroke:none;" d="M174 161L173 163L174 161z"/>
<path style="fill:#ddebec; stroke:none;" d="M175 161L126 214L107.961 233.373L88 221L38 280L75 253L75 256C67.1033 256.356 68.2018 269.97 66 276L72 271L71 268L74 268L74 264L71 265L71 257L78 258L78 257L75 258L78 251C80.5401 251.523 80.6855 251.595 81 249L82 249L82 253L83 253L83 248L86 250L86 246L87 246L89 253L91 253L95 241L99 243L102 241L91 254L95.1219 263.039L81 280L129.004 243.768L150 226L151 226L146 283L147 283L173 246L176 246C179.721 257.24 190.113 270.221 198 279C202.466 263.89 197 242.855 197 227L232 265L233 265L233 242C238.547 245.789 244.936 253.667 252 253C255.483 264.429 274.166 273.944 282 283L283 283L261 249L268 256L268 252L269 256L269 257L274 259L273 256L277 259C273.813 261.193 281.993 263.444 284 264L283 266L315 285C305.839 273.023 290.427 263.643 279 253.718C265.031 241.586 250.105 224 234 215.028C229.605 212.579 225.344 216.961 221.428 214.353C202.146 201.506 193.479 174.61 175 161z"/>
<path style="fill:#38bbdf; stroke:none;" d="M176 161L177 162L176 161M177 162L178 163L177 162M178 163L179 164L178 163M319 164L319 167L320 167L319 164z"/>
<path style="fill:#ca9961; stroke:none;" d="M170 166L171 167L170 166M180 166L181 167L180 166M169 167L170 168L169 167M181 167L182 168L181 167M168 168L169 169L168 168z"/>
<path style="fill:#ddebec; stroke:none;" d="M1 169L0 202L1 202L1 169z"/>
<path style="fill:#ca9961; stroke:none;" d="M167 169L168 170L167 169M166 170L167 171L166 170M183 170L184 171L183 170M165 171L166 172L165 171M184 171L185 172L184 171z"/>
<path style="fill:#38bbdf; stroke:none;" d="M320 171L320 178L321 178L320 171z"/>
<path style="fill:#47363d; stroke:none;" d="M162.333 172.667L162.667 173.333L162.333 172.667z"/>
<path style="fill:#ca9961; stroke:none;" d="M185 172L186 173L185 172M163 173L164 174L163 173z"/>
<path style="fill:#47363d; stroke:none;" d="M161 174L162 175L161 174z"/>
<path style="fill:#ca9961; stroke:none;" d="M187 175L188 176L187 175z"/>
<path style="fill:#2d549f; stroke:none;" d="M15.3333 176.667L15.6667 177.333L15.3333 176.667z"/>
<path style="fill:#ca9961; stroke:none;" d="M188 176L189 177L188 176z"/>
<path style="fill:#47363d; stroke:none;" d="M152 183L155 179L159 178C155.282 177.249 153.512 179.859 152 183z"/>
<path style="fill:#2d549f; stroke:none;" d="M14 179L14 184L13 184L12 182L11 195L9 194L10 222L11 222L11 219L12 219L12 223L13 223L13 220L14 220L14 222L15 222L13 189L14 189L14 192L15 192L14 179z"/>
<path style="fill:#ca9961; stroke:none;" d="M190 179L191 180L190 179z"/>
<path style="fill:#47363d; stroke:none;" d="M145 180L147 183L147 180L145 180z"/>
<path style="fill:#ca9961; stroke:none;" d="M191 180L192 181L191 180z"/>
<path style="fill:#2d549f; stroke:none;" d="M153 181L154 182L153 181z"/>
<path style="fill:#ca9961; stroke:none;" d="M192 181L193 182L192 181z"/>
<path style="fill:#47363d; stroke:none;" d="M194 181L195 182L194 181z"/>
<path style="fill:#ca9961; stroke:none;" d="M193 182L194 183L193 182M194 183L195 184L194 183z"/>
<path style="fill:#47363d; stroke:none;" d="M198 183L199 184L198 183z"/>
<path style="fill:#2d549f; stroke:none;" d="M144 184L144 187L145 187L144 184z"/>
<path style="fill:#47363d; stroke:none;" d="M196 184L200 188L196 184z"/>
<path style="fill:#ca9961; stroke:none;" d="M151 186L152 187L151 186M197 187L198 188L197 187z"/>
<path style="fill:#47363d; stroke:none;" d="M202 187L203 188L202 187z"/>
<path style="fill:#38bbdf; stroke:none;" d="M320 187L320 197L321 197L320 187z"/>
<path style="fill:#ca9961; stroke:none;" d="M198 188L199 189L198 188z"/>
<path style="fill:#2d549f; stroke:none;" d="M147 189L146 191L147 189z"/>
<path style="fill:#ca9961; stroke:none;" d="M148 189L149 190L148 189M199 189L200 190L199 189z"/>
<path style="fill:#47363d; stroke:none;" d="M200.667 189.333L201.333 189.667L200.667 189.333z"/>
<path style="fill:#ca9961; stroke:none;" d="M147 190L148 191L147 190M146 191L147 192L146 191z"/>
<path style="fill:#47363d; stroke:none;" d="M202 191L203 193L204 193L205 191L202 191z"/>
<path style="fill:#2d549f; stroke:none;" d="M13 192L14 193L13 192M142 192L143 193L142 192z"/>
<path style="fill:#ca9961; stroke:none;" d="M145 192L146 193L145 192M201 192L202 193L201 192z"/>
<path style="fill:#2d549f; stroke:none;" d="M138 193L139 194L138 193z"/>
<path style="fill:#ca9961; stroke:none;" d="M144 193L145 194L144 193M202 193L203 194L202 193z"/>
<path style="fill:#47363d; stroke:none;" d="M204 193L208 199L209 199L204 193M213 193L214 194L213 193z"/>
<path style="fill:#ca9961; stroke:none;" d="M143 194L144 195L143 194M203 194L204 195L203 194z"/>
<path style="fill:#47363d; stroke:none;" d="M289 261L289 251L286.62 241L281 226L275 225L278 224L278 223L271 222L272 218C259.211 209.979 246.566 203.394 232.615 197.579C227.671 195.519 218.729 192.941 214 196C210.328 194.076 208.764 197.507 210.279 201.001C212.068 205.128 217.509 210.971 221.17 213.574C225.751 216.832 230.503 211.778 236.004 215.86C254.394 229.503 269.073 249.537 289 261z"/>
<path style="fill:#ca9961; stroke:none;" d="M142 195L143 196L142 195M204 195L205 196L204 195M141 196L142 197L141 196z"/>
<path style="fill:#2d549f; stroke:none;" d="M211 196L212 197L211 196M215 196L216 197L215 196M327.333 196.667L327.667 197.333L327.333 196.667z"/>
<path style="fill:#ca9961; stroke:none;" d="M140 197L141 198L140 197z"/>
<path style="fill:#2d549f; stroke:none;" d="M213 197L215 199L213 197z"/>
<path style="fill:#47363d; stroke:none;" d="M10 198L11 199L10 198z"/>
<path style="fill:#2d549f; stroke:none;" d="M139 198L140 199L139 198M138 199L139 200L138 199z"/>
<path style="fill:#ca9961; stroke:none;" d="M207 199L208 200L207 199z"/>
<path style="fill:#2d549f; stroke:none;" d="M212 199L211 201L212 199M137 200L135 203L137 200z"/>
<path style="fill:#ca9961; stroke:none;" d="M208 200L209 201L208 200z"/>
<path style="fill:#38bbdf; stroke:none;" d="M319 200L319 204L320 204L319 200z"/>
<path style="fill:#ca9961; stroke:none;" d="M137 201L138 202L137 201M209 201L210 202L209 201M136 202L137 203L136 202M210 202L211 203L210 202M135 203L136 204L135 203M211 203L212 204L211 203z"/>
<path style="fill:#2d549f; stroke:none;" d="M217 203L218 204L217 203z"/>
<path style="fill:#ca9961; stroke:none;" d="M134 204L135 205L134 204M212 204L213 205L212 204M133 205L134 206L133 205z"/>
<path style="fill:#2d549f; stroke:none;" d="M213 205L214 206L213 205M216 205L217 206L216 205M219.333 205.667L219.667 206.333L219.333 205.667M131 206L132 207L131 206z"/>
<path style="fill:#ca9961; stroke:none;" d="M132 206L133 207L132 206z"/>
<path style="fill:#2d549f; stroke:none;" d="M214 206L215 207L214 206M382.333 206.667L382.667 207.333L382.333 206.667M129 207L130 208L129 207z"/>
<path style="fill:#ca9961; stroke:none;" d="M131 207L132 208L131 207z"/>
<path style="fill:#2d549f; stroke:none;" d="M215 207L216 208L215 207M217 207L220 209L220 208L217 207z"/>
<path style="fill:#38bbdf; stroke:none;" d="M318 207L318 210L319 210L318 207z"/>
<path style="fill:#ca9961; stroke:none;" d="M130 208L131 209L130 208z"/>
<path style="fill:#2d549f; stroke:none;" d="M216 208L219 211L216 208z"/>
<path style="fill:#ddebec; stroke:none;" d="M0 209L1 234C4.8753 228.327 2.62462 215.084 0 209z"/>
<path style="fill:#2d549f; stroke:none;" d="M129 209L130 210L129 209z"/>
<path style="fill:#ca9961; stroke:none;" d="M216 209L217 210L216 209z"/>
<path style="fill:#2d549f; stroke:none;" d="M128 210L127 212L128 210z"/>
<path style="fill:#ca9961; stroke:none;" d="M217 210L218 211L217 210z"/>
<path style="fill:#2d549f; stroke:none;" d="M220 210L221 211L220 210M235 210L236 211L235 210z"/>
<path style="fill:#ca9961; stroke:none;" d="M128 211L129 212L128 211M218 211L219 212L218 211z"/>
<path style="fill:#2d549f; stroke:none;" d="M322 211L322 214L323 214L322 211M382 211L382 215L381 215L381 213L380 213L381 225C384.976 221.778 384.206 215.157 382 211z"/>
<path style="fill:#ca9961; stroke:none;" d="M127 212L128 213L127 212M219 212L220 213L219 212z"/>
<path style="fill:#2d549f; stroke:none;" d="M229 212L230 213L229 212z"/>
<path style="fill:#38bbdf; stroke:none;" d="M317 212L317 215L318 215L317 212z"/>
<path style="fill:#ca9961; stroke:none;" d="M126 213L127 214L126 213z"/>
<path style="fill:#2d549f; stroke:none;" d="M220 213L221 214L220 213M227 213L226 215L227 213z"/>
<path style="fill:#ca9961; stroke:none;" d="M228 213L229 214L228 213M231 213L232 214L231 213z"/>
<path style="fill:#2d549f; stroke:none;" d="M232 213L232 214L235 215L232 213z"/>
<path style="fill:#ca9961; stroke:none;" d="M125 214L126 215L125 214z"/>
<path style="fill:#2d549f; stroke:none;" d="M221 214L223 216L221 214z"/>
<path style="fill:#ca9961; stroke:none;" d="M227 214L228 215L227 214M233 214L234 215L233 214z"/>
<path style="fill:#2d549f; stroke:none;" d="M124 215L125 216L124 215z"/>
<path style="fill:#ca9961; stroke:none;" d="M221 215L222 216L221 215z"/>
<path style="fill:#2d549f; stroke:none;" d="M224 215L225 216L224 215z"/>
<path style="fill:#ca9961; stroke:none;" d="M225 215L226 216L225 215z"/>
<path style="fill:#2d549f; stroke:none;" d="M235 215L236 216L235 215M242.667 215.333L243.333 215.667L242.667 215.333M123 216L124 217L123 216z"/>
<path style="fill:#ca9961; stroke:none;" d="M236 216L237 217L236 216z"/>
<path style="fill:#2d549f; stroke:none;" d="M122 217L120 220L122 217z"/>
<path style="fill:#ca9961; stroke:none;" d="M237 217L244 224L237 217z"/>
<path style="fill:#2d549f; stroke:none;" d="M238 217L239 218L238 217M241.333 217.667L241.667 218.333L241.333 217.667M244 217L245 218L244 217z"/>
<path style="fill:#ca9961; stroke:none;" d="M122 218L123 219L122 218z"/>
<path style="fill:#2d549f; stroke:none;" d="M239 218L240 219L239 218z"/>
<path style="fill:#ca9961; stroke:none;" d="M121 219L122 220L121 219z"/>
<path style="fill:#2d549f; stroke:none;" d="M240 219L241 220L240 219M243 219L244 220L243 219z"/>
<path style="fill:#ca9961; stroke:none;" d="M120 220L121 221L120 220z"/>
<path style="fill:#2d549f; stroke:none;" d="M241 220L242 221L241 220z"/>
<path style="fill:#ddebec; stroke:none;" d="M315 220L316 221L315 220z"/>
<path style="fill:#2d549f; stroke:none;" d="M87 221L86 223L87 221z"/>
<path style="fill:#ca9961; stroke:none;" d="M89.6667 221.333L90.3333 221.667L89.6667 221.333M119 221L120 222L119 221z"/>
<path style="fill:#2d549f; stroke:none;" d="M242 221L243 222L242 221M247 221L248 222L247 221z"/>
<path style="fill:#ca9961; stroke:none;" d="M87 222L88 223L87 222M91 222L92 223L91 222z"/>
<path style="fill:#2d549f; stroke:none;" d="M92 222L93 223L92 222z"/>
<path style="fill:#ca9961; stroke:none;" d="M118 222L119 223L118 222z"/>
<path style="fill:#2d549f; stroke:none;" d="M243 222L244 223L243 222z"/>
<path style="fill:#ca9961; stroke:none;" d="M86 223L87 224L86 223M93 223L94 224L93 223z"/>
<path style="fill:#2d549f; stroke:none;" d="M117 223L118 224L117 223M244 223L245 224L244 223M15 224L15 227L16 227L15 224z"/>
<path style="fill:#ca9961; stroke:none;" d="M85 224L86 225L85 224M94 224L95 225L94 224z"/>
<path style="fill:#2d549f; stroke:none;" d="M116 224L117 225L116 224M245 224L246 225L245 224M379 224L379 227L380 227L379 224z"/>
<path style="fill:#ca9961; stroke:none;" d="M95 225L96 226L95 225z"/>
<path style="fill:#2d549f; stroke:none;" d="M96 225L97 226L96 225z"/>
<path style="fill:#ca9961; stroke:none;" d="M246 225L247 226L246 225M84 226L85 227L84 226M97 226L98 227L97 226z"/>
<path style="fill:#2d549f; stroke:none;" d="M114 226L115 227L114 226z"/>
<path style="fill:#ca9961; stroke:none;" d="M115 226L116 227L115 226M150 226L149 229L150 226M247 226L248 227L247 226z"/>
<path style="fill:#2d549f; stroke:none;" d="M250 226L251 227L250 226z"/>
<path style="fill:#ca9961; stroke:none;" d="M83 227L84 228L83 227M98 227L99 228L98 227M114 227L115 228L114 227M197 227L197 248L198 248L200 231L197 227M248 227L251 230L248 227z"/>
<path style="fill:#2d549f; stroke:none;" d="M249 227L250 228L249 227z"/>
<path style="fill:#ca9961; stroke:none;" d="M99 228L100 229L99 228M113 228L114 229L113 228z"/>
<path style="fill:#2d549f; stroke:none;" d="M250 228L251 229L250 228z"/>
<path style="fill:#ca9961; stroke:none;" d="M82 229L83 230L82 229M100 229L101 230L100 229z"/>
<path style="fill:#2d549f; stroke:none;" d="M112 229L113 230L112 229z"/>
<path style="fill:#ca9961; stroke:none;" d="M148 229L149 230L148 229z"/>
<path style="fill:#2d549f; stroke:none;" d="M251 229L252 230L251 229z"/>
<path style="fill:#ca9961; stroke:none;" d="M81 230L82 231L81 230M147 230L148 231L147 230z"/>
<path style="fill:#2d549f; stroke:none;" d="M252 230L253 231L252 230M80 231L81 232L80 231M103 231L104 232L103 231z"/>
<path style="fill:#ca9961; stroke:none;" d="M111 231L112 232L111 231M144 233L147 231L144 233M150 231L150 236L151 236L150 231M200 231L201 232L200 231z"/>
<path style="fill:#2d549f; stroke:none;" d="M253.667 231.333L254.333 231.667L253.667 231.333M378.333 231.667L378.667 232.333L378.333 231.667M16.3333 232.667L16.6667 233.333L16.3333 232.667M104 232L105 233L104 232z"/>
<path style="fill:#ca9961; stroke:none;" d="M110 232L111 233L110 232M201.333 232.667L201.667 233.333L201.333 232.667M254 232L255 233L254 232M79 233L80 234L79 233z"/>
<path style="fill:#2d549f; stroke:none;" d="M105 233L106 234L105 233z"/>
<path style="fill:#ca9961; stroke:none;" d="M109 233L110 234L109 233M140 236L144 233L140 236M255 233L258 236L255 233z"/>
<path style="fill:#2d549f; stroke:none;" d="M256 233L257 234L256 233z"/>
<path style="fill:#ca9961; stroke:none;" d="M78 234L79 235L78 234M106 234L107 235L106 234M108 234L109 235L108 234M202 234L203 235L202 234z"/>
<path style="fill:#2d549f; stroke:none;" d="M257 234L258 235L257 234z"/>
<path style="fill:#ca9961; stroke:none;" d="M77 235L78 236L77 235z"/>
<path style="fill:#2d549f; stroke:none;" d="M258 235L259 236L258 235M76 236L77 237L76 236z"/>
<path style="fill:#ca9961; stroke:none;" d="M136 239L140 236L136 239M203 236L204 237L203 236z"/>
<path style="fill:#2d549f; stroke:none;" d="M259 236L260 237L259 236M75 237L76 238L75 237z"/>
<path style="fill:#ca9961; stroke:none;" d="M204 237L205 238L204 237M260 237L261 238L260 237z"/>
<path style="fill:#2d549f; stroke:none;" d="M377 237L377 240L378 240L377 237z"/>
<path style="fill:#ca9961; stroke:none;" d="M75 238L76 239L75 238M149 238L149 247L150 247L149 238M205 238L207 240L207 238L205 238M261 238L262 239L261 238z"/>
<path style="fill:#2d549f; stroke:none;" d="M17 239L18 240L17 239z"/>
<path style="fill:#ca9961; stroke:none;" d="M74 239L75 240L74 239M130 242L130 243L136 239L130 242M262 239L265 242L262 239z"/>
<path style="fill:#2d549f; stroke:none;" d="M263 239L264 240L263 239z"/>
<path style="fill:#ca9961; stroke:none;" d="M73 240L74 241L73 240M207 240L208 241L207 240z"/>
<path style="fill:#2d549f; stroke:none;" d="M264 240L265 241L264 240z"/>
<path style="fill:#ca9961; stroke:none;" d="M72 241L73 242L72 241M95 241L91 253L89 253L87 246L86 246L86 250L83 248L83 253L82 253L82 249L81 249L81 252L78 251L75 258L78 257L78 258L71 257L71 265L74 264L74 268C71.3839 267.973 71.4464 268.432 72 271L69 274C76.5025 270.437 85.575 262.621 89 255C94.7731 254.374 100.721 246.337 102 241L99 243L95 241M208 241L215 248L208 241z"/>
<path style="fill:#2d549f; stroke:none;" d="M265 241L266 242L265 241z"/>
<path style="fill:#ca9961; stroke:none;" d="M71 242L72 243L71 242M233 242L233 249L234 249L234 244L238 246L233 242z"/>
<path style="fill:#2d549f; stroke:none;" d="M266 242L267 243L266 242M376.333 242.667L376.667 243.333L376.333 242.667z"/>
<path style="fill:#ca9961; stroke:none;" d="M70 243L71 244L70 243M129 243L130 244L129 243M267 243L268 244L267 243z"/>
<path style="fill:#2d549f; stroke:none;" d="M18 244L19 245L18 244z"/>
<path style="fill:#ca9961; stroke:none;" d="M69 244L70 245L69 244M128 244L129 245L128 244M268 244L269 245L268 244z"/>
<path style="fill:#2d549f; stroke:none;" d="M274 244L275 245L274 244M68 245L67 247L68 245z"/>
<path style="fill:#ca9961; stroke:none;" d="M123 249L128 245L123 249M269 245L270 246L269 245z"/>
<path style="fill:#2d549f; stroke:none;" d="M272 245L273 246L272 245M276 245L277 246L276 245z"/>
<path style="fill:#ca9961; stroke:none;" d="M68 246L69 247L68 246M173 248L176 248L174 246L173 248M238 246L239 247L238 246M270 246L271 247L270 246M67 247L68 248L67 247M239 247L242 249L239 247M271 247L272 248L271 247z"/>
<path style="fill:#ddebec; stroke:none;" d="M388 247L381 270L391 273L391 247L388 247z"/>
<path style="fill:#2d549f; stroke:none;" d="M19 248L20 249L19 248z"/>
<path style="fill:#ca9961; stroke:none;" d="M66 248L67 249L66 248M172 248L173 249L172 248M176.333 248.667L176.667 249.333L176.333 248.667M215 248L216 249L215 248M244 248L245 249L244 248M260 248L261 249L260 248M263 248L267 255L268 255L263 248z"/>
<path style="fill:#2d549f; stroke:none;" d="M273 248L274 249L273 248M64 249L65 250L64 249z"/>
<path style="fill:#ca9961; stroke:none;" d="M65 249L66 250L65 249M116 254L123 250L116 254M148 249L148 258L149 258L148 249M171 249L170 252L171 249M216 249L217 250L216 249M242 249L247 253L242 249M261 249L267 260L286 268L286 267L283 266L284 264L277 259L273 256L274 259L269 257L269 256L268 252L268 256L261 249z"/>
<path style="fill:#2d549f; stroke:none;" d="M274 249L275 250L274 249z"/>
<path style="fill:#47363d; stroke:none;" d="M287 249L288 250L287 249z"/>
<path style="fill:#2d549f; stroke:none;" d="M375 249L376 250L375 249z"/>
<path style="fill:#ca9961; stroke:none;" d="M64 250L65 251L64 250M72 250L73 251L72 250M177 250L178 251L177 250M217 250L218 251L217 250z"/>
<path style="fill:#2d549f; stroke:none;" d="M275 250L276 251L275 250z"/>
<path style="fill:#ca9961; stroke:none;" d="M63 251L64 252L63 251M75.3333 251.667L75.6667 252.333L75.3333 251.667M178 251L180 254L178 251M218 251L219 252L218 251M276 251L277 252L276 251M62 252L63 253L62 252z"/>
<path style="fill:#ddebec; stroke:none;" d="M85.3333 252.667L85.6667 253.333L85.3333 252.667z"/>
<path style="fill:#ca9961; stroke:none;" d="M169.333 252.667L169.667 253.333L169.333 252.667M198 252L198 265L199 265L198 252M219 252L220 253L219 252M221 252L222 253L221 252M249 252L250 253L249 252M252 252L253 253L252 252M277 252L278 253L277 252z"/>
<path style="fill:#ddebec; stroke:none;" d="M7 253L4 254L4 258L2 255L1 255L2 260C-1.11842 264.736 2.91152 267.608 7 270L8 267L9 267L9 270L12 271C13.1224 264.99 10.3325 258.02 7 253z"/>
<path style="fill:#ca9961; stroke:none;" d="M61 253L62 254L61 253M64 260L70 259L75 256L75 253L64 260z"/>
<path style="fill:#ddebec; stroke:none;" d="M79 253L80 254L79 253z"/>
<path style="fill:#ca9961; stroke:none;" d="M220 253L221 254L220 253M247 253L247 254L258 261L252 253L247 253M278 253L279 254L278 253M60 254L61 255L60 254M112 257L116 254L112 257M168 254L169 255L168 254M180 254L181 255L180 254M221 254L222 255L221 254M253.333 254.667L253.667 255.333L253.333 254.667M271 254L273 256L273 254L271 254M279 254L280 255L279 254z"/>
<path style="fill:#2d549f; stroke:none;" d="M374 254L375 255L374 254z"/>
<path style="fill:#ca9961; stroke:none;" d="M59 255L60 256L59 255z"/>
<path style="fill:#ddebec; stroke:none;" d="M80 255L81 256L80 255z"/>
<path style="fill:#ca9961; stroke:none;" d="M167 255L166 258L167 255M222 255L223 256L222 255z"/>
<path style="fill:#2d549f; stroke:none;" d="M281 255L282 256L281 255z"/>
<path style="fill:#ca9961; stroke:none;" d="M58 256L59 257L58 256M91 256L92 257L91 256M181 256L182 257L181 256M223 256L224 257L223 256z"/>
<path style="fill:#2d549f; stroke:none;" d="M282 256L283 257L282 256z"/>
<path style="fill:#ca9961; stroke:none;" d="M57 257L58 258L57 257M111 257L112 258L111 257M182 257L184 260L182 257M224 257L225 258L224 257z"/>
<path style="fill:#2d549f; stroke:none;" d="M283 257L284 258L283 257z"/>
<path style="fill:#ca9961; stroke:none;" d="M56 258L57 259L56 258M92 258L93 259L92 258M109 258L109 260L111 258L109 258M165 258L166 259L165 258M225 258L226 259L225 258M284 258L285 259L284 258M55 259L56 260L55 259M68 259L68 267L69 267L68 259M93 259L95 261L95 259L93 259M164 259L165 260L164 259M226 259L227 260L226 259z"/>
<path style="fill:#47363d; stroke:none;" d="M268 259L269 260L268 259z"/>
<path style="fill:#ca9961; stroke:none;" d="M278 259L280 262L278 259M285 259L286 260L285 259M0.666667 260.333L1.33333 260.667L0.666667 260.333M7 260L8 261L7 260M54 260L55 261L54 260M63 260L64 261L63 260M107 260L108 261L107 260M163 260L162 263L163 260M184 260L185 261L184 260M227 260L228 261L227 260z"/>
<path style="fill:#2d549f; stroke:none;" d="M268 260L269 261L268 260z"/>
<path style="fill:#ca9961; stroke:none;" d="M286 260L287 261L286 260M53 261L54 262L53 261M62 261L63 262L62 261M95 261L96 262L95 261M106 261L107 262L106 261M185.333 261.667L185.667 262.333L185.333 261.667M228 261L229 262L228 261M233 261L235 267L233 261M258 261L259 262L258 261M268 261L269 262L268 261z"/>
<path style="fill:#ddebec; stroke:none;" d="M274 261L275 262L274 261z"/>
<path style="fill:#47363d; stroke:none;" d="M289 261L291 263L291 261L289 261z"/>
<path style="fill:#ca9961; stroke:none;" d="M52 262L53 263L52 262M61 262L62 263L61 262M96 262L94 266L96 262M104.667 262.333L105.333 262.667L104.667 262.333M147 262L147 271L148 271L147 262M229 262L232 265L229 262M259 262L261 264L261 262L259 262M269 262L270 263L269 262M51 263L52 264L51 263M60 263L61 264L60 263M103 263L104 264L103 263M161 263L162 264L161 263M186 263L187 264L186 263M290 263L291 264L290 263M385 263L386 264L385 263z"/>
<path style="fill:#2d549f; stroke:none;" d="M50 264L49 266L50 264z"/>
<path style="fill:#ca9961; stroke:none;" d="M59 264L60 265L59 264M102 264L103 265L102 264M160 264L161 265L160 264M187 264L188 265L187 264M261.667 264.333L262.333 264.667L261.667 264.333M270 264L271 265L270 264z"/>
<path style="fill:#ddebec; stroke:none;" d="M280 264L281 265L280 264z"/>
<path style="fill:#ca9961; stroke:none;" d="M291 264L292 265L291 264M50 265L51 266L50 265M57.6667 265.333L58.3333 265.667L57.6667 265.333M70 265L72 267L70 265M99 267L102 265L99 267M159 265L158 268L159 265M263 265L264 266L263 265M271.333 265.667L271.667 266.333L271.333 265.667M292 265L293 266L292 265M56 266L57 267L56 266M93 266L94 267L93 266M188 266L189 267L188 266M264 266L265 267L264 266M293 266L294 267L293 266M11 267L12 268L11 267M48 267L49 268L48 267M55 267L56 268L55 267M92 267L93 268L92 267M98 267L99 268L98 267M189 267L190 268L189 267M265 267L266 268L265 267M272 267L273 268L272 267M294 267L295 268L294 267M47 268L48 269L47 268M54 268L55 269L54 268M91 268L92 269L91 268M96.6667 268.333L97.3333 268.667L96.6667 268.333M157 268L158 269L157 268M199 268L200 286L201 286L199 281L199 268M266 268L267 269L266 268M273 268L274 269L273 268M286 268L286 269L291 271L286 268M46 269L45 271L47 271L46 269M53 269L54 270L53 269M67 269L67 273L68 273L67 269z"/>
<path style="fill:#ddebec; stroke:none;" d="M73 269L74 270L73 269z"/>
<path style="fill:#ca9961; stroke:none;" d="M90 269L89 271L91 271L90 269M95 269L96 270L95 269M156 269L157 270L156 269M190 269L191 270L190 269M267 269L270 271L267 269M52 270L53 271L52 270M94 270L95 271L94 270M155 270L156 271L155 270M191.333 270.667L191.667 271.333L191.333 270.667M274 270L275 271L274 270M298 270L299 271L298 270M44 271L45 272L44 271M50 271L51 272L50 271M88 271L89 272L88 271M92.6667 271.333L93.3333 271.667L92.6667 271.333M154.333 271.667L154.667 272.333L154.333 271.667M270 271L271 272L270 271M275 271L276 272L275 271M291.667 271.333L292.333 271.667L291.667 271.333M299 271L300 272L299 271M43 272L44 273L43 272M49 272L50 273L49 272M87 272L88 273L87 272M91 272L92 273L91 272M192 272L193 273L192 272M271 272L272 273L271 272M276 272L277 273L276 272M293 272L294 273L293 272M300 272L301 273L300 272M42 273L43 274L42 273M48 273L49 274L48 273M66.3333 273.667L66.6667 274.333L66.3333 273.667M86 273L87 274L86 273M89.6667 273.333L90.3333 273.667L89.6667 273.333M146 273L146 277L147 277L146 273M153 273L154 274L153 273M193 273L196 279L197 279L193 273M272 273L273 274L272 273M294.667 273.333L295.333 273.667L294.667 273.333M302 273L303 274L302 273M41 274L42 275L41 274M47 274L48 275L47 274M68 274L69 275L68 274M85 274L86 275L85 274M88 274L89 275L88 274M152 274L153 275L152 274M273 274L274 275L273 274M277 274L278 275L277 274M296 274L299 276L296 274M303 274L304 275L303 274z"/>
<path style="fill:#2d549f; stroke:none;" d="M40 275L39 277L40 275z"/>
<path style="fill:#ca9961; stroke:none;" d="M45 275L46 276L45 275M67 275L68 276L67 275M84 275L85 276L84 275M87 275L88 276L87 275M151.333 275.667L151.667 276.333L151.333 275.667M274 275L275 276L274 275M278 275L279 276L278 275M304 275L305 276L304 275M40 276L41 277L40 276M44 276L45 277L44 276M65 276L65 278L67 276L65 276M83 276L84 277L83 276M85.6667 276.333L86.3333 276.667L85.6667 276.333M275 276L276 277L275 276M279 276L280 277L279 276M299 276L300 277L299 276M39 277L40 278L39 277M42.6667 277.333L43.3333 277.667L42.6667 277.333M82 277L83 278L82 277M84 277L85 278L84 277M150 277L151 278L150 277M276 277L277 278L276 277M301 277L302 278L301 277M307 277L308 278L307 277M38 278L39 279L38 278M39 280L42 278L39 280M81 278L82 279L81 278M83 278L84 279L83 278M149.333 278.667L149.667 279.333L149.333 278.667M277 278L278 279L277 278M280 278L281 279L280 278M302.667 278.333L303.333 278.667L302.667 278.333M308 278L309 279L308 278M37 279L34 283L39 280L37 279M80 279L78 283L82 280L80 279M82 279L83 280L82 279M281 279L282 280L281 279M304 279L305 280L304 279M309 279L310 280L309 279M148 280L149 281L148 280z"/>
<path style="fill:#ddebec; stroke:none;" d="M199 280L200 281L199 280z"/>
<path style="fill:#ca9961; stroke:none;" d="M282 280L283 281L282 280M306 280L307 281L306 280M310 280L311 281L310 280z"/>
<path style="fill:#2d549f; stroke:none;" d="M311 280L312 281L311 280z"/>
<path style="fill:#ca9961; stroke:none;" d="M145 281L145 286L146 286L145 281M147.333 281.667L147.667 282.333L147.333 281.667M281 281L282 282L281 281M283 281L286 286L283 281M307.667 281.333L308.333 281.667L307.667 281.333M312 281L313 282L312 281M309 282L310 283L309 282M313 282L314 283L313 282M311 283L312 284L311 283M314 283L315 284L314 283M313 284L314 285L313 284M315 284L314 285L319 288L319 287L315 284z"/>
<path style="fill:#ddebec; stroke:none;" d="M316 285L317 286L316 285z"/>
<path style="fill:#ca9961; stroke:none;" d="M319 288L322 290L319 288M322 290L323 291L322 290z"/>
<path style="fill:#2d549f; stroke:none;" d="M42 304L43 305L42 304M156 305L156 306L161 310L167 310L167 311L160 311L161 314C152.691 314.07 145.027 317.447 137 319.346C116.002 324.313 90.6921 330.149 73 343L95 362C97.3321 354.572 113.339 348.779 120 345.436C145.227 332.776 180.447 317.75 209 320L209 321L206 321L206 322L209 322L208 327L200 328L200 329L205 329L205 330L201 330L201 331L208 332L207 330L208 330C215.551 335.102 229.59 328.551 238 326.65C260.595 321.545 286.838 315.535 310 316L310 315L286 315L285 313L285 312L288 312L288 311C276.987 308.955 266.04 310.477 255 310.961C221.925 312.411 189.676 318.949 158 328.438C144.852 332.377 132.598 338.903 119 341L119 338L100 337L100 336L105 334L101 334L104 333L104 332L102 332L102 331C117.242 329.742 133.938 321.66 149 317.895C177.767 310.705 209.363 306 239 306L215 305L156 305M242 304L242 305L246 305L242 304M248 304L248 305L267 305L248 304z"/>
<path style="fill:#ca9961; stroke:none;" d="M267 304L267 305L310 305C298.774 300.29 279.219 304 267 304z"/>
<path style="fill:#38bbdf; stroke:none;" d="M239 305L239 306L251 306L239 305z"/>
<path style="fill:#ddebec; stroke:none;" d="M235 306L235 307L240 308L238 310L238 311L347 312C342.473 316.274 334.038 315.97 328 315.999C316.04 316.057 303.864 316.843 292 318.424C244.82 324.713 198.96 333.221 156 354.753C143.724 360.906 122.057 369.02 116 382C128.322 389.012 143.364 393.115 157 396.848C161.336 398.035 168.443 401.18 172.91 400.096C176.521 399.221 179.353 394.676 182 392.285C189.691 385.34 196.746 378.014 205 371.651C224.198 356.852 245.647 348.559 268 340L272 343L272 342L270 341L298 337L307 345L316 339C315.919 344.017 313.668 346.398 309 348L310 351L300 357L300 358C315.644 353.942 329.507 336.883 339.985 325.514C344.984 320.09 350.555 314.473 352 307L235 306z"/>
<path style="fill:#ca9961; stroke:none;" d="M321 305L321 306L336 306L321 305z"/>
<path style="fill:#47363d; stroke:none;" d="M176 306L176 307L180 307L176 306z"/>
<path style="fill:#38bbdf; stroke:none;" d="M102 331L102 332L104 332L104 333L101 334L105 334L100 336L100 337C107.834 338.227 110.949 340.656 119 338L119 341C132.025 340.335 144.722 333.273 157 329.079C172.244 323.871 188.199 320.09 204 317.001C211.167 315.599 229.28 316.408 234 311L245 312L245 311L238 311L238 310L240 308C205.972 303.116 167.263 313.157 134 321.475C123.395 324.127 112.706 329.525 102 331z"/>
<path style="fill:#2d549f; stroke:none;" d="M152 308L153 309L152 308M156 308L160 310L156 308z"/>
<path style="fill:#38bbdf; stroke:none;" d="M241.667 308.333L242.333 308.667L241.667 308.333z"/>
<path style="fill:#2d549f; stroke:none;" d="M45 309L46 310L45 309z"/>
<path style="fill:#38bbdf; stroke:none;" d="M269 309L269 310L288 311L288 312L285 312L285 313L286 315L310 315L310 316L305 316L305 317L346 314C340.785 309.114 332.617 311.46 326 310.83C307.091 309.031 288.017 309 269 309M248 310L248 311L260 311L248 310z"/>
<path style="fill:#ddebec; stroke:none;" d="M234.667 311.333L235.333 311.667L234.667 311.333z"/>
<path style="fill:#47363d; stroke:none;" d="M163 312L164 313L163 312z"/>
<path style="fill:#2d549f; stroke:none;" d="M322.667 312.333L323.333 312.667L322.667 312.333M345 312L346 313L345 312z"/>
<path style="fill:#ca9961; stroke:none;" d="M346 312L347 313L346 312z"/>
<path style="fill:#2d549f; stroke:none;" d="M344 313L345 314L344 313M320 314L320 315L329 315L320 314z"/>
<path style="fill:#ca9961; stroke:none;" d="M345 314L346 315L345 314z"/>
<path style="fill:#2d549f; stroke:none;" d="M49 315L50 316L49 315M311 315L311 316L315 316L311 315z"/>
<path style="fill:#47363d; stroke:none;" d="M205 318L205 319L212 318L205 318z"/>
<path style="fill:#38bbdf; stroke:none;" d="M292 317L292 318L302 318L292 317M287 318L287 319L292 319L287 318z"/>
<path style="fill:#2d549f; stroke:none;" d="M52 319L53 320L52 319z"/>
<path style="fill:#47363d; stroke:none;" d="M94 360C99.0429 366.086 107.323 368.961 115 370L115 371L106 369L110 372L110 373L104 372L104 373L106 373L106 374L96 373L98 369L93 374L115 385L115 386L95 386C97.977 390.624 105.607 395.172 111 396L111 397L96 399L88 394L95 405L178 405L196 404L233 400L233 401L225 404L225 405L275 405C279.901 405 289.593 406.899 293 403L290 404L295 400L295 399L278 399L278 396L297 396L297 395L288 393L288 390L294 386L290 386L290 383L280 384L282 386L282 387L275 390L275 391L277 391L277 392L273 392L275 398C266.202 390.749 256.525 396.912 246 397L246 396L276 384.873L288 378L283 379L278 377L280 373C254.763 381.226 230.897 391.117 204 393.089C192.926 393.9 179.914 389.324 175 402L114 383C118.286 373.834 129.586 369.075 138 364.281C160.049 351.718 185.661 337.307 211 333L207 330L208 332L207 332L201 331L201 330L205 330L205 329L200 329L200 328L208 327C207.72 324.105 209.6 322.436 206 322L206 321L209 321C199.846 316.133 186.306 321.634 177 324.151C147.925 332.016 119.06 343.108 94 360z"/>
<path style="fill:#38bbdf; stroke:none;" d="M279 319L279 320L284 320L279 319M273 320L273 321L277 321L273 320M265 321L265 322L269 322L265 321M259 322L259 323L262 323L259 322z"/>
<path style="fill:#2d549f; stroke:none;" d="M55 323L56 324L55 323z"/>
<path style="fill:#38bbdf; stroke:none;" d="M254.667 323.333L255.333 323.667L254.667 323.333z"/>
<path style="fill:#47363d; stroke:none;" d="M0 324C0.189245 329.831 2.40583 333.091 8 335C6.81261 330.047 5.15837 325.588 0 324z"/>
<path style="fill:#38bbdf; stroke:none;" d="M248 324L248 325L251 325L248 324M243.667 325.333L244.333 325.667L243.667 325.333M238.667 326.333L239.333 326.667L238.667 326.333z"/>
<path style="fill:#47363d; stroke:none;" d="M383 326L376 327L386 331L383 326z"/>
<path style="fill:#2d549f; stroke:none;" d="M58 327L59 328L58 327z"/>
<path style="fill:#38bbdf; stroke:none;" d="M234 327L235 328L234 327M229.667 328.333L230.333 328.667L229.667 328.333z"/>
<path style="fill:#ca9961; stroke:none;" d="M225.667 329.333L226.333 329.667L225.667 329.333M221 330L222 331L221 330z"/>
<path style="fill:#38bbdf; stroke:none;" d="M217 331L218 332L217 331z"/>
<path style="fill:#2d549f; stroke:none;" d="M200 332L201 333L200 332z"/>
<path style="fill:#38bbdf; stroke:none;" d="M213 332L214 333L213 332z"/>
<path style="fill:#ca9961; stroke:none;" d="M214 332L215 333L214 332z"/>
<path style="fill:#2d549f; stroke:none;" d="M207 333L207 334L210 334L207 333z"/>
<path style="fill:#ca9961; stroke:none;" d="M210 333L211 334L210 333z"/>
<path style="fill:#47363d; stroke:none;" d="M11 337L16 335L11 337z"/>
<path style="fill:#2d549f; stroke:none;" d="M108 334L109 335L108 334M205 334L206 335L205 334z"/>
<path style="fill:#38bbdf; stroke:none;" d="M206 334L207 335L206 334z"/>
<path style="fill:#ca9961; stroke:none;" d="M207 334L208 335L207 334z"/>
<path style="fill:#2d549f; stroke:none;" d="M65 335L66 336L65 335M201.667 335.333L202.333 335.667L201.667 335.333z"/>
<path style="fill:#ca9961; stroke:none;" d="M203 335L204 336L203 335z"/>
<path style="fill:#2d549f; stroke:none;" d="M198.667 336.333L199.333 336.667L198.667 336.333z"/>
<path style="fill:#ca9961; stroke:none;" d="M200 336L201 337L200 336z"/>
<path style="fill:#38bbdf; stroke:none;" d="M288 336L288 338L290 336L288 336M291 336L291 337L294 337L291 336z"/>
<path style="fill:#2d549f; stroke:none;" d="M67 337L68 338L67 337M120 337L121 338L120 337M195.667 337.333L196.333 337.667L195.667 337.333z"/>
<path style="fill:#ca9961; stroke:none;" d="M197 337L198 338L197 337z"/>
<path style="fill:#38bbdf; stroke:none;" d="M272 342L272 343L268 340C244.699 346.612 222.128 357.514 203 372.424C196.432 377.544 187.198 383.568 185 392C217.12 394.535 252.391 385.33 281 370.691C291.625 365.254 299.692 356.469 310 351L309 348C314.154 346.951 316.681 344.356 316 339L307 345L298 337L278 338.667L272 342z"/>
<path style="fill:#2d549f; stroke:none;" d="M192.667 338.333L193.333 338.667L192.667 338.333z"/>
<path style="fill:#ca9961; stroke:none;" d="M194 338L195 339L194 338z"/>
<path style="fill:#2d549f; stroke:none;" d="M189.667 339.333L190.333 339.667L189.667 339.333z"/>
<path style="fill:#ca9961; stroke:none;" d="M191 339L192 340L191 339z"/>
<path style="fill:#2d549f; stroke:none;" d="M70 340L71 341L70 340M187 340L188 341L187 340z"/>
<path style="fill:#ca9961; stroke:none;" d="M188 340L189 341L188 340z"/>
<path style="fill:#2d549f; stroke:none;" d="M71 341L72 342L71 341z"/>
<path style="fill:#38bbdf; stroke:none;" d="M122.667 341.333L123.333 341.667L122.667 341.333z"/>
<path style="fill:#2d549f; stroke:none;" d="M184.667 341.333L185.333 341.667L184.667 341.333z"/>
<path style="fill:#ca9961; stroke:none;" d="M186 341L187 342L186 341z"/>
<path style="fill:#2d549f; stroke:none;" d="M72 342L73 343L72 342z"/>
<path style="fill:#38bbdf; stroke:none;" d="M112 342L110 343L110 344L112 342M116 342L117 343L116 342z"/>
<path style="fill:#2d549f; stroke:none;" d="M182 342L183 343L182 342z"/>
<path style="fill:#ca9961; stroke:none;" d="M183 342L184 343L183 342z"/>
<path style="fill:#47363d; stroke:none;" d="M0 350L4 343C0.313318 344.223 0.120401 346.308 0 350z"/>
<path style="fill:#38bbdf; stroke:none;" d="M118.667 343.333L119.333 343.667L118.667 343.333z"/>
<path style="fill:#2d549f; stroke:none;" d="M180 343L181 344L180 343z"/>
<path style="fill:#ca9961; stroke:none;" d="M181 343L182 344L181 343z"/>
<path style="fill:#2d549f; stroke:none;" d="M177 344L178 345L177 344z"/>
<path style="fill:#ca9961; stroke:none;" d="M178.667 344.333L179.333 344.667L178.667 344.333z"/>
<path style="fill:#2d549f; stroke:none;" d="M175 345L176 346L175 345z"/>
<path style="fill:#ca9961; stroke:none;" d="M176 345L177 346L176 345z"/>
<path style="fill:#ddebec; stroke:none;" d="M58 346L60 348L58 346z"/>
<path style="fill:#2d549f; stroke:none;" d="M173 346L174 347L173 346z"/>
<path style="fill:#ca9961; stroke:none;" d="M174 346L175 347L174 346z"/>
<path style="fill:#2d549f; stroke:none;" d="M170 347L171 348L170 347z"/>
<path style="fill:#ca9961; stroke:none;" d="M171 347L172 348L171 347z"/>
<path style="fill:#ddebec; stroke:none;" d="M61 348L63 351L61 348z"/>
<path style="fill:#2d549f; stroke:none;" d="M168 348L169 349L168 348z"/>
<path style="fill:#ca9961; stroke:none;" d="M169 348L170 349L169 348z"/>
<path style="fill:#2d549f; stroke:none;" d="M166 349L167 350L166 349z"/>
<path style="fill:#ca9961; stroke:none;" d="M167 349L168 350L167 349z"/>
<path style="fill:#2d549f; stroke:none;" d="M163 350L164 351L163 350z"/>
<path style="fill:#ca9961; stroke:none;" d="M164 350L165 351L164 350z"/>
<path style="fill:#2d549f; stroke:none;" d="M161 351L162 352L161 351z"/>
<path style="fill:#ca9961; stroke:none;" d="M162 351L163 352L162 351z"/>
<path style="fill:#2d549f; stroke:none;" d="M159 352L160 353L159 352z"/>
<path style="fill:#ca9961; stroke:none;" d="M160 352L161 353L160 352M158 353L159 354L158 353z"/>
<path style="fill:#2d549f; stroke:none;" d="M155 354L156 355L155 354z"/>
<path style="fill:#ca9961; stroke:none;" d="M156 354L157 355L156 354z"/>
<path style="fill:#2d549f; stroke:none;" d="M153 355L154 356L153 355z"/>
<path style="fill:#ca9961; stroke:none;" d="M154 355L155 356L154 355z"/>
<path style="fill:#2d549f; stroke:none;" d="M151 356L152 357L151 356z"/>
<path style="fill:#ca9961; stroke:none;" d="M152 356L153 357L152 356z"/>
<path style="fill:#47363d; stroke:none;" d="M0 357L7 360L7 359L0 357z"/>
<path style="fill:#2d549f; stroke:none;" d="M149 357L150 358L149 357z"/>
<path style="fill:#ca9961; stroke:none;" d="M150 357L151 358L150 357z"/>
<path style="fill:#2d549f; stroke:none;" d="M148 358L149 359L148 358M146 359L147 360L146 359z"/>
<path style="fill:#ca9961; stroke:none;" d="M147 359L148 360L147 359z"/>
<path style="fill:#ddebec; stroke:none;" d="M298 359L299 360L298 359z"/>
<path style="fill:#2d549f; stroke:none;" d="M144 360L145 361L144 360z"/>
<path style="fill:#ca9961; stroke:none;" d="M145 360L146 361L145 360z"/>
<path style="fill:#2d549f; stroke:none;" d="M142 361L143 362L142 361z"/>
<path style="fill:#ca9961; stroke:none;" d="M143 361L144 362L143 361z"/>
<path style="fill:#47363d; stroke:none;" d="M79 362L80 363L79 362z"/>
<path style="fill:#ca9961; stroke:none;" d="M141 362L142 363L141 362M139 363L140 364L139 363z"/>
<path style="fill:#2d549f; stroke:none;" d="M137 364L138 365L137 364z"/>
<path style="fill:#47363d; stroke:none;" d="M83 365L84 366L83 365z"/>
<path style="fill:#2d549f; stroke:none;" d="M135 365L136 366L135 365z"/>
<path style="fill:#ca9961; stroke:none;" d="M136 365L137 366L136 365z"/>
<path style="fill:#2d549f; stroke:none;" d="M102 366L103 367L102 366z"/>
<path style="fill:#ca9961; stroke:none;" d="M134 366L135 367L134 366z"/>
<path style="fill:#47363d; stroke:none;" d="M88 367L93 372L88 367M99 367L100 368L99 367z"/>
<path style="fill:#2d549f; stroke:none;" d="M105 367L106 368L105 367z"/>
<path style="fill:#ca9961; stroke:none;" d="M132 367L133 368L132 367z"/>
<path style="fill:#47363d; stroke:none;" d="M65 368L64 369L64 371C68.8923 372.432 72.5647 371.893 76 368L65 368z"/>
<path style="fill:#2d549f; stroke:none;" d="M130 368L131 369L130 368z"/>
<path style="fill:#ca9961; stroke:none;" d="M131 368L132 369L131 368z"/>
<path style="fill:#2d549f; stroke:none;" d="M110 369L112 371L112 369L110 369z"/>
<path style="fill:#ca9961; stroke:none;" d="M129 369L130 370L129 369M112 370L113 371L112 370z"/>
<path style="fill:#2d549f; stroke:none;" d="M113.667 370.333L114.333 370.667L113.667 370.333M127 370L128 371L127 370z"/>
<path style="fill:#47363d; stroke:none;" d="M356 370L357 371L356 370M13 371L9 377L0 375L0 386C5.13086 385.108 8.43066 385.591 10 391C17.6233 393.399 22.4287 392.054 30 390L35 392L35 391L31 387L37 387L36 383L62 383L61 378L27 377C25.5927 370.487 18.2698 371.384 13 371z"/>
<path style="fill:#2d549f; stroke:none;" d="M117 371L118 372L117 371M125 371L126 372L125 371z"/>
<path style="fill:#ca9961; stroke:none;" d="M126 371L127 372L126 371M279 371L280 372L279 371z"/>
<path style="fill:#2d549f; stroke:none;" d="M274 374L274 375L282 371L274 374z"/>
<path style="fill:#47363d; stroke:none;" d="M328 378L326 383L326 384L339 385L339 382L391 385L391 374L371 377.656L357 371.757L328 378z"/>
<path style="fill:#2d549f; stroke:none;" d="M120 372L121 373L120 372z"/>
<path style="fill:#ca9961; stroke:none;" d="M121 372L122 373L121 372z"/>
<path style="fill:#2d549f; stroke:none;" d="M123 372L124 373L123 372z"/>
<path style="fill:#ca9961; stroke:none;" d="M124 372L125 373L124 372M277 372L278 373L277 372M119 373L120 374L119 373M122 373L123 374L122 373M274.667 373.333L275.333 373.667L274.667 373.333M121 374L122 375L121 374M267 376L267 377L274 375L267 376M117 383L121 375C117.98 376.104 110.747 381.653 117 383z"/>
<path style="fill:#2d549f; stroke:none;" d="M271.667 375.333L272.333 375.667L271.667 375.333M268 376L268 377L271 377L268 376z"/>
<path style="fill:#ca9961; stroke:none;" d="M265 377L266 378L265 377z"/>
<path style="fill:#2d549f; stroke:none;" d="M266.667 377.333L267.333 377.667L266.667 377.333z"/>
<path style="fill:#ca9961; stroke:none;" d="M262 378L263 379L262 378z"/>
<path style="fill:#2d549f; stroke:none;" d="M248 383L248 384L266 379L248 383z"/>
<path style="fill:#ca9961; stroke:none;" d="M44 379L44 380L48 380L44 379M49 379L50 380L49 379z"/>
<path style="fill:#47363d; stroke:none;" d="M299 384L329 396L329 401L326 398L313 401L312 405L374 405L376 401C372.297 399.757 368.561 398.489 366 402C355.19 399.541 331.075 408.004 329 389L327 385C323.612 384.436 320.335 385.731 317 385.161C310.433 384.04 304.811 376.109 299 384z"/>
<path style="fill:#ca9961; stroke:none;" d="M306 381L305 383L307 383L306 381M117.667 383.333L118.333 383.667L117.667 383.333M190 383L191 384L190 383z"/>
<path style="fill:#47363d; stroke:none;" d="M43 385L43 386L49 386L43 385z"/>
<path style="fill:#ca9961; stroke:none;" d="M119.667 384.333L120.333 384.667L119.667 384.333z"/>
<path style="fill:#2d549f; stroke:none;" d="M244 384L244 385L248 385L244 384z"/>
<path style="fill:#47363d; stroke:none;" d="M295 384L295 385L299 385L295 384z"/>
<path style="fill:#ca9961; stroke:none;" d="M28 385L29 386L28 385M122 385L122 386L126 387L126 386L122 385M239 385L240 386L239 385z"/>
<path style="fill:#2d549f; stroke:none;" d="M240 385L240 386L244 386L240 385M237 386L237 387L240 387L237 386z"/>
<path style="fill:#ca9961; stroke:none;" d="M116 387C110.946 402.983 130.694 397.389 141 398C136.007 391.102 123.887 388.868 116 387z"/>
<path style="fill:#2d549f; stroke:none;" d="M126 387L127 388L126 387z"/>
<path style="fill:#ca9961; stroke:none;" d="M127 387L128 388L127 387z"/>
<path style="fill:#2d549f; stroke:none;" d="M233 387L233 388L237 388L233 387z"/>
<path style="fill:#ca9961; stroke:none;" d="M26 388L27 389L26 388z"/>
<path style="fill:#2d549f; stroke:none;" d="M129 388L130 389L129 388z"/>
<path style="fill:#ca9961; stroke:none;" d="M130 388L131 389L130 388z"/>
<path style="fill:#2d549f; stroke:none;" d="M229 388L229 389L232 389L229 388z"/>
<path style="fill:#ca9961; stroke:none;" d="M132.667 389.333L133.333 389.667L132.667 389.333z"/>
<path style="fill:#2d549f; stroke:none;" d="M224 389L224 390L229 390L224 389z"/>
<path style="fill:#ca9961; stroke:none;" d="M135 390L135 391L138 391L135 390M184 390L185 391L184 390z"/>
<path style="fill:#2d549f; stroke:none;" d="M212 391L212 392L223 391L212 391z"/>
<path style="fill:#47363d; stroke:none;" d="M0 391L0 400L10.0394 404.686L31 405C27.3413 393.869 9.78795 393.33 0 391z"/>
<path style="fill:#ca9961; stroke:none;" d="M138 391L138 392L141 392L138 391M182 391L181 393L182 391z"/>
<path style="fill:#2d549f; stroke:none;" d="M183 391L183 392L190 393L190 392L183 391z"/>
<path style="fill:#ca9961; stroke:none;" d="M141 392L141 393L144 393L141 392z"/>
<path style="fill:#2d549f; stroke:none;" d="M182 392L183 393L182 392M202 392L202 393L212 393L202 392z"/>
<path style="fill:#47363d; stroke:none;" d="M271 392L272 393L271 392z"/>
<path style="fill:#ca9961; stroke:none;" d="M144 393L144 394L147 394L144 393M180 393L181 394L180 393z"/>
<path style="fill:#2d549f; stroke:none;" d="M190 393L190 394L201 394L190 393z"/>
<path style="fill:#47363d; stroke:none;" d="M93 394L94 395L93 394z"/>
<path style="fill:#ca9961; stroke:none;" d="M147 394L147 395L150 395L147 394M179 394L180 395L179 394M151.667 395.333L152.333 395.667L151.667 395.333M178 395L179 396L178 395M154.667 396.333L155.333 396.667L154.667 396.333M177 396L178 397L177 396M156 397L156 398L168 400L156 397M176.333 397.667L176.667 398.333L176.333 397.667z"/>
<path style="fill:#47363d; stroke:none;" d="M49 401L48 401L39 404L39 405L75 405C79.8681 405 85.8816 406.324 89 402L82 403C75.4929 390.6 58.7538 407.396 49 401z"/>
<path style="fill:#ca9961; stroke:none;" d="M150 398L151 399L150 398M152 398L153 399L152 398M175 399L176 400L175 399M235.667 399.333L236.333 399.667L235.667 399.333M0 400L0 405L8 405L0 400M169 400L169 401L172 401L169 400M174 400L173 402L175 402L174 400M178 403L178 405C196.4 405 215.7 407.37 233 401L213 402.845L178 403M175 402L175 403L178 403L175 402z"/>
<path style="fill:#47363d; stroke:none;" d="M376 404L376 405L391 405L391 402L376 404M91 404L92 405L91 404z"/>
<path style="fill:#ca9961; stroke:none;" d="M176 404L177 405L176 404M372 404L373 405L372 404z"/>
</svg>
